<?xml version="1.0" standalone="no"?>
<!DOCTYPE svg PUBLIC "-//W3C//DTD SVG 20010904//EN"
 "http://www.w3.org/TR/2001/REC-SVG-20010904/DTD/svg10.dtd">
<svg version="1.0" xmlns="http://www.w3.org/2000/svg"
 width="512.000000pt" height="512.000000pt" viewBox="0 0 512.000000 512.000000"
 preserveAspectRatio="xMidYMid meet">
<metadata>
Created by potrace 1.11, written by Peter Selinger 2001-2013
</metadata>
<g transform="translate(0.000000,512.000000) scale(0.100000,-0.100000)"
fill="#000000" stroke="none">
<path d="M2405 4949 c-58 -16 -131 -111 -151 -195 -4 -16 -9 -121 -11 -234 -2
-113 -5 -210 -7 -215 -2 -6 -19 -12 -37 -13 -44 -3 -222 -40 -279 -57 -234
-71 -314 -101 -482 -185 -132 -66 -267 -151 -393 -247 -129 -99 -321 -289
-426 -423 -68 -86 -102 -135 -198 -285 l-32 -50 1085 -3 c598 -1 1574 -1 2170
0 l1084 3 -55 90 c-49 81 -147 222 -162 235 -3 3 -24 28 -46 55 -287 359 -757
667 -1220 798 -93 26 -278 65 -329 69 -15 2 -30 7 -32 13 -2 5 -5 102 -7 215
-2 113 -7 219 -11 235 -20 86 -93 178 -155 195 -44 12 -264 12 -306 -1z"/>
<path d="M93 2704 c-17 -7 -44 -30 -60 -50 -23 -31 -28 -47 -28 -93 1 -63 19
-98 69 -134 26 -19 47 -22 138 -26 l108 -3 1 -742 c1 -779 1 -793 18 -868 71
-311 315 -547 631 -612 66 -14 262 -15 1620 -13 1733 3 1576 -4 1755 77 214
96 407 346 440 572 3 24 8 52 10 63 2 11 4 359 4 773 l1 752 95 0 c113 0 151
13 191 65 23 31 28 48 29 96 0 62 -16 94 -69 133 l-27 21 -2447 2 c-2076 1
-2452 -1 -2479 -13z"/>
</g>
</svg>
